<svg
   id="bravo-simbolo"
   width="40" height="41" viewBox="0 0 40 41"
   xmlns="http://www.w3.org/2000/svg"
   role="img"
   aria-label="Símbolo Bravo Equipamentos">
  <path d="m 261.289,426.195 h 16.863 c 7.75,0 14.039,-6.297 14.039,-14.062 v -264.11 c 0,-7.765 -6.289,-14.066 -14.039,-14.066 h -16.863 c -7.754,0 -14.039,6.301 -14.039,14.066 v 264.11 c 0,7.765 6.285,14.062 14.039,14.062 z"
        transform="matrix(0.13333,0,0,-0.13333,0,57.6)" fill="#FFFFFF"/>
  <path d="m 166.441,426.195 h 46.813 c 7.754,0 14.039,-6.297 14.039,-14.062 v -264.11 c 0,-7.765 -6.285,-14.066 -14.039,-14.066 h -46.813 c -7.753,0 -14.043,6.301 -14.043,14.066 v 264.11 c 0,7.765 6.29,14.062 14.043,14.062 z"
        transform="matrix(0.13333,0,0,-0.13333,0,57.6)" fill="#FFFFFF"/>
  <path d="M 14.1836,426.195 H 115.91 c 7.754,0 14.039,-6.297 14.039,-14.066 V 148.023 c 0,-7.769 -6.285,-14.066 -14.039,-14.066 H 14.1836 c -7.75391,0 -14.039069,6.297 -14.039069,14.066 v 264.106 c 0,7.769 6.285159,14.066 14.039069,14.066 z"
        transform="matrix(0.13333,0,0,-0.13333,0,57.6)" fill="#FFFFFF"/>
</svg>